HIERARCHY
ROOT Hips
{
  OFFSET -0.374924 99.1592 -154.97
  CHANNELS 6 Xposition Yposition Zposition Zrotation Xrotation Yrotation
  JOINT RightUpLeg
  {
    OFFSET -8.9458 -8.66707 0.101652
    CHANNELS 3 Zrotation Xrotation Yrotation
    JOINT RightLeg
    {
      OFFSET 0 -44.4227 1.3727
      CHANNELS 3 Zrotation Xrotation Yrotation
      JOINT RightFoot
      {
        OFFSET 0.253549 -42.0924 -1.46059
        CHANNELS 3 Zrotation Xrotation Yrotation
        JOINT RightToes
        {
          OFFSET 0.04 -4.41509 8.4991
          CHANNELS 3 Zrotation Xrotation Yrotation
          End Site
          {
            OFFSET -0.08 -0.137448 9.77979
          }
        }
      }
    }
  }
  JOINT Spine
  {
    OFFSET 0 11.8905 0
    CHANNELS 3 Zrotation Xrotation Yrotation
    JOINT Spine1
    {
      OFFSET 0 25.6574 0.127663
      CHANNELS 3 Zrotation Xrotation Yrotation
      JOINT HEad
      {
        OFFSET 0 8.73416 0.011341
        CHANNELS 3 Zrotation Xrotation Yrotation
        End Site
        {
          OFFSET -0.29 12.7742 2.51395
        }
      }
      JOINT LeftShoulder1
      {
        OFFSET 8.99 -0.362252 -0.22
        CHANNELS 3 Zrotation Xrotation Yrotation
        JOINT LeftArm
        {
          OFFSET 10.2827 -0.00338 0.322123
          CHANNELS 3 Zrotation Xrotation Yrotation
          JOINT LeftForeArm
          {
            OFFSET 32.7669 0.099144 -1.42434
            CHANNELS 3 Zrotation Xrotation Yrotation
            JOINT LeftHand
            {
              OFFSET 27.5643 0.085362 1.02216
              CHANNELS 3 Zrotation Xrotation Yrotation
              End Site
              {
                OFFSET 16.7443 -0.6 1.50291
              }
            }
          }
        }
      }
      JOINT RightShoulder
      {
        OFFSET -8.99 -0.362252 -0.22
        CHANNELS 3 Zrotation Xrotation Yrotation
        JOINT RightArm
        {
          OFFSET -10.2827 -0.00338 0.322123
          CHANNELS 3 Zrotation Xrotation Yrotation
          JOINT RightForeArm
          {
            OFFSET -32.8971 0.099144 -1.42434
            CHANNELS 3 Zrotation Xrotation Yrotation
            JOINT RightHand
            {
              OFFSET -27.4921 0.085362 1.02216
              CHANNELS 3 Zrotation Xrotation Yrotation
              End Site
              {
                OFFSET -16.6312 -0.6 1.50291
              }
            }
          }
        }
      }
    }
  }
  JOINT LeftUpLeg
  {
    OFFSET 8.9458 -8.66707 0.101652
    CHANNELS 3 Zrotation Xrotation Yrotation
    JOINT LeftLeg
    {
      OFFSET 0 -44.4227 1.3727
      CHANNELS 3 Zrotation Xrotation Yrotation
      JOINT LeftFoot
      {
        OFFSET -0.253549 -42.0924 -1.46059
        CHANNELS 3 Zrotation Xrotation Yrotation
        JOINT LeftToes
        {
          OFFSET -0.04 -4.41509 8.4991
          CHANNELS 3 Zrotation Xrotation Yrotation
          End Site
          {
            OFFSET 0.08 -0.047448 9.77979
          }
        }
      }
    }
  }
}
MOTION
Frames:	17
Frame Time:	0.0166667
1.17331 97.9458 -166.709 0.22294 -0.0298066 -0.59133 -0.0969606 -25.7 -0.100194 6.00212 25.319 -2.39479 0.231371 -6.32232 -0.164805 0.0462048 0.000533964 0.662642 -0.296204 2.31676 0.579207 2.01713 0.663504 0.197826 -7.39327 2.74217 -6.82649 2.87306e-017 -3.97569e-016 -3.72721e-017 -78.3379 -4.86008 -9.3393 -28.6802 16.1763 -16.8387 0.368473 9.90896 -0.00117927 4.1214 -0.476826 -7.44822 85.7385 -31.6549 12.0278 15.6676 13.815 10.844 -0.369625 9.91382 0.00119887 0.350606 8.38104 0.185992 -11.9792 24.5071 21.2211 -10.6388 -13.9126 -0.97425 -4.89805e-013 5.32266e-012 -8.95008e-012 
0.896618 98.2175 -165.174 0.0772171 -0.256319 -0.617689 0.244034 -24.3867 -0.054872 6.06621 25.3175 -2.33042 -0.111023 -7.17627 -0.178804 -0.709377 -0.332305 0.796759 -0.0808924 2.35316 0.623328 2.24528 0.775352 0.194806 -7.54826 3.14756 -6.66861 -7.67185e-016 0 -9.93923e-017 -78.3219 -5.70742 -8.51927 -28.7949 16.0283 -16.3241 0.368473 9.90896 -0.00117927 3.62848 -0.449601 -7.36065 86.3329 -31.5849 12.3153 15.4484 13.7457 10.4016 -0.369625 9.91382 0.00119887 1.22138 7.0166 1.23949 -12.4824 28.7323 23.0158 -11.1185 -11.4403 -0.765089 8.25777 -2.48536 -1.25418 
0.633929 98.4472 -163.688 -0.104884 -0.438292 -0.600067 0.544024 -23.1844 0.116817 6.31898 25.3556 -2.51463 -0.432709 -8.08517 -0.194561 -1.27873 -0.644406 0.860968 0.215652 2.41948 0.647495 2.47578 0.896028 0.191159 -7.70153 3.43895 -6.55953 -2.6867e-016 3.97569e-016 -7.45443e-017 -78.3247 -6.5503 -7.78759 -28.8509 15.8715 -15.7932 0.368473 9.90896 -0.00117927 3.11608 -0.422466 -7.27626 86.948 -31.4576 12.6113 15.2605 13.6922 10.0711 -0.369625 9.91382 0.00119887 2.03379 5.35966 2.40461 -12.9532 33.1233 24.2848 -11.4544 -8.89995 -0.544028 14.9224 -5.33862 -2.411 
0.403643 98.5561 -162.338 -0.407908 -0.511207 -0.441869 0.727518 -22.2779 0.721562 7.17533 25.4982 -3.52861 -0.69499 -9.16244 -0.214767 -1.29801 -0.914385 0.704617 0.779279 2.59414 0.604385 2.69405 1.0437 0.185788 -7.82165 3.41171 -6.60769 -1.10885e-015 -3.97569e-016 -1.49089e-016 -78.4352 -7.3914 -7.3305 -28.7185 15.6746 -15.1562 0.368473 9.90896 -0.00117927 2.55959 -0.396238 -7.20555 87.6478 -31.1749 12.9245 15.1531 13.6812 10.0269 -0.369625 9.91382 0.00119887 2.70701 2.87676 4.04008 -12.2756 38.3796 23.3005 -11.3325 -5.81978 -0.243076 18.6461 -10.4942 -3.60122 
0.206538 98.6115 -161.055 -0.72209 -0.490479 -0.256879 0.829117 -21.5515 1.33481 8.16157 25.6917 -4.62986 -0.930386 -10.2877 -0.238258 -1.12687 -1.12362 0.499801 1.37833 2.76167 0.556122 2.9532 1.19917 0.17948 -7.98252 3.22228 -6.68161 -5.74612e-016 -1.19271e-015 -1.98785e-016 -78.5861 -8.19219 -6.94591 -28.5625 15.5033 -14.6153 0.368473 9.90896 -0.00117927 1.95535 -0.368883 -7.1297 88.3177 -30.8046 13.2609 15.1116 13.7018 10.191 -0.369625 9.91382 0.00119887 3.26235 0.0193407 5.54564 -10.9988 43.8554 21.4362 -11.0654 -3.34435 0.00375699 17.5134 -13.6247 -4.0722 
0.0558571 98.6382 -159.802 -0.979065 -0.347818 -0.150562 0.90261 -21.0108 1.59623 8.90855 25.982 -5.17857 -1.16012 -11.4033 -0.265224 -1.01225 -1.20689 0.398434 1.84613 2.81384 0.558154 3.35601 1.35624 0.172225 -8.276 2.95649 -6.64682 6.7711e-016 -7.95139e-016 2.98177e-016 -78.7324 -8.92687 -6.46771 -28.5405 15.4239 -14.3622 0.368473 9.90896 -0.00117927 1.22356 -0.336115 -7.02872 88.8816 -30.379 13.6225 15.1402 13.7573 10.5899 -0.369625 9.91382 0.00119887 3.45761 -2.98541 6.46284 -9.95699 49.127 19.4879 -10.8792 -2.69309 0.0592696 6.45799 -8.90588 -2.51387 
-0.0673841 98.6852 -158.573 -1.14159 -0.149838 -0.0513208 0.899072 -20.491 1.65131 9.48196 26.1884 -5.43389 -1.37882 -12.434 -0.29417 -0.916998 -1.28255 0.31056 2.17103 2.80732 0.583262 3.73886 1.4942 0.165325 -8.61712 2.62165 -6.62144 -3.35449e-016 1.59028e-015 -9.93923e-017 -78.8637 -9.56163 -5.96982 -28.562 15.414 -14.334 0.368473 9.90896 -0.00117927 0.567754 -0.305478 -6.91666 89.2901 -29.9058 14.0319 15.2271 13.8285 11.0847 -0.369625 9.91382 0.00119887 3.47761 -6.02789 6.75138 -9.01237 53.7395 18.105 -10.591 -3.1704 0.0113042 -6.28417 -2.77865 -0.567692 
-0.175799 98.8359 -157.348 -1.12848 0.0725467 0.0964765 0.761137 -19.8029 1.45708 9.76679 26.0555 -5.36971 -1.56699 -13.2379 -0.320909 -0.922789 -1.48636 0.187946 2.21308 2.75112 0.639103 3.97271 1.53371 0.162696 -8.97521 2.25474 -6.72357 -3.04389e-016 7.95139e-016 -9.93923e-017 -78.9606 -10.0066 -5.46785 -28.584 15.483 -14.5758 0.368473 9.90896 -0.00117927 0.225519 -0.286206 -6.81469 89.3692 -29.4062 14.4829 15.3964 13.9028 11.5564 -0.369625 9.91382 0.00119887 3.37266 -8.96839 5.99818 -9.24997 56.98 19.3962 -10.0451 -4.7076 -0.119113 -11.8821 -0.681189 0.624699 
-0.275254 99.0123 -156.14 -1.00238 0.240523 0.23528 0.550724 -19.0196 1.21206 9.93165 25.8402 -5.19903 -1.78683 -13.9574 -0.353263 -0.925143 -1.7009 0.0572581 2.19143 2.67989 0.676461 4.05658 1.64445 0.156492 -9.28612 1.85327 -6.81824 -1.98785e-016 -7.95139e-016 -0 -79.0162 -10.4033 -4.9724 -28.6096 15.5947 -14.9584 0.368473 9.90896 -0.00117927 0.0150917 -0.268977 -6.68154 89.4143 -28.871 15.0616 15.547 13.9682 11.9698 -0.369625 9.91382 0.00119887 3.06572 -11.7053 4.77661 -10.3676 59.1381 21.7065 -9.46552 -6.6429 -0.276306 -14.7486 0.0420759 1.41715 
-0.374924 99.1592 -154.97 -0.783963 0.226299 0.327626 0.277416 -18.1372 1.13395 10.1433 25.7445 -5.17559 -2.13982 -14.7051 -0.402765 -0.774911 -1.82684 -0.0844949 2.31071 2.63513 0.633269 3.9177 2.04665 0.135701 -9.45005 1.3865 -6.80959 5.46658e-016 7.95139e-016 3.97569e-016 -79.0211 -10.8902 -4.51528 -28.6128 15.7156 -15.3621 0.368473 9.90896 -0.00117927 -0.177453 -0.24529 -6.45971 89.6809 -28.2668 15.8745 15.5934 14.0126 12.265 -0.369625 9.91382 0.00119887 2.64354 -14.0327 3.51043 -11.5393 60.3597 23.2209 -9.04007 -8.15952 -0.383843 -16.5308 0.216343 1.66722 
-0.477495 99.2924 -153.799 -0.512866 0.145913 0.368866 -0.000634396 -17.2003 1.10781 10.2912 25.6766 -5.15026 -2.49091 -15.428 -0.454777 -0.684491 -1.94566 -0.196504 2.4734 2.60528 0.555779 3.64315 2.50922 0.113731 -9.53155 0.974929 -6.69875 -5.34234e-016 0 -1.98785e-016 -78.9475 -11.3888 -4.04781 -28.6398 15.8483 -15.8029 0.368473 9.90896 -0.00117927 -0.318487 -0.221858 -6.21907 90.0972 -27.6827 16.8446 15.5155 14.027 12.3958 -0.369625 9.91382 0.00119887 2.15449 -16.0681 2.2681 -12.6376 60.7 24.3684 -8.67609 -9.65393 -0.479636 -17.2766 -0.0726248 1.61412 
-0.593294 99.4017 -152.579 -0.232321 0.0907516 0.353344 -0.211636 -16.2749 1.09266 10.306 25.6395 -5.07181 -2.68641 -16.0917 -0.492022 -0.941971 -2.13314 -0.202396 2.6695 2.60258 0.461022 3.25632 2.8201 0.104106 -9.54124 0.783376 -6.4317 -4.84538e-016 7.95139e-016 -4.96962e-016 -78.6955 -11.8314 -3.49092 -28.764 15.9955 -16.2888 0.368473 9.90896 -0.00117927 -0.348298 -0.205622 -6.03428 90.6774 -27.2391 17.9555 15.2303 13.9848 12.2211 -0.369625 9.91382 0.00119887 1.71727 -17.8849 1.28892 -13.4046 60.2705 25.0613 -8.30313 -11.3963 -0.582171 -17.5407 -0.523736 1.40216 
-0.708576 99.5095 -151.355 0.0442633 0.00695471 0.246628 -0.377545 -15.2925 1.08735 10.2333 25.5503 -4.90152 -2.88079 -16.7521 -0.533207 -1.17106 -2.30722 -0.211841 2.84172 2.59716 0.374559 2.8736 3.14245 0.095484 -9.54357 0.648431 -6.07642 -2.03754e-015 0 -9.93923e-017 -78.4708 -12.3233 -2.96694 -28.8791 16.1252 -16.7235 0.368473 9.90896 -0.00117927 -0.458458 -0.187485 -5.83352 91.4535 -26.8039 19.1433 14.8391 13.925 11.9664 -0.369625 9.91382 0.00119887 1.33986 -19.4262 0.536431 -13.7869 59.0284 25.4476 -8.05301 -12.9487 -0.674788 -17.5669 -0.959059 1.17332 
-0.813563 99.6489 -150.163 0.301667 -0.144081 -0.0225866 -0.494577 -14.1773 1.10507 10.0857 25.2848 -4.56215 -3.25563 -17.5107 -0.603762 -0.954786 -2.3683 -0.341292 2.89818 2.55893 0.332564 2.62979 3.60789 0.0792882 -9.6089 0.457762 -5.67133 3.72721e-017 1.59028e-015 -1.49089e-016 -78.5084 -13.0197 -2.61042 -28.8664 16.1976 -16.9819 0.368473 9.90896 -0.00117927 -0.892413 -0.156811 -5.5415 92.5527 -26.2712 20.3726 14.3889 13.879 11.8215 -0.369625 9.91382 0.00119887 1.05917 -20.645 0.101428 -13.6307 56.9063 25.7528 -8.08576 -13.9107 -0.746013 -17.826 -1.08878 1.12713 
-0.906673 99.7768 -148.976 0.498932 -0.316736 -0.349347 -0.563612 -13.0176 1.06344 9.90227 24.9664 -4.12248 -3.57947 -18.1964 -0.667342 -0.706408 -2.44471 -0.494122 2.93234 2.50078 0.320256 2.49414 4.099 0.0607125 -9.72699 0.222715 -5.252 -2.57799e-016 0 -4.34841e-017 -78.6235 -13.7063 -2.30704 -28.8448 16.2447 -17.1553 0.368473 9.90896 -0.00117927 -1.43562 -0.125059 -5.24327 93.6796 -25.6985 21.5363 13.9622 13.8445 11.7517 -0.369625 9.91382 0.00119887 0.900754 -21.5916 -0.145215 -13.1862 54.0704 25.9298 -8.2319 -14.4396 -0.793795 -18.1618 -0.946801 1.23489 
-0.980469 99.8618 -147.778 0.574568 -0.477136 -0.626324 -0.564921 -11.8672 0.809339 9.68866 24.6666 -3.61066 -3.58472 -18.5933 -0.680064 -0.905243 -2.71026 -0.575189 3.00814 2.42434 0.338224 2.49822 4.51954 0.0429151 -9.94313 -0.117837 -4.88533 1.26725e-015 7.95139e-016 1.49089e-016 -78.6985 -14.1519 -1.97357 -28.911 16.2748 -17.2629 0.368473 9.90896 -0.00117927 -1.92361 -0.102096 -5.0171 94.5134 -25.1175 22.481 13.6877 13.8309 11.7851 -0.369625 9.91382 0.00119887 0.886806 -22.2981 -0.325502 -12.6698 50.6383 26.0175 -8.35814 -14.518 -0.808878 -18.6102 -0.405969 1.57124 
-1.04275 99.9014 -146.573 0.580523 -0.628628 -0.931956 -0.528279 -10.7538 0.573929 9.54703 24.4177 -3.0662 -3.55331 -18.9381 -0.687195 -0.937636 -2.92906 -0.696582 3.12264 2.33333 0.376518 2.5892 4.93748 0.0234462 -10.161 -0.458679 -4.51592 -4.13804e-033 7.95139e-016 2.98177e-016 -78.772 -14.5603 -1.65121 -29.0083 16.3161 -17.3971 0.368473 9.90896 -0.00117927 -2.44848 -0.0821858 -4.80802 95.2849 -24.5115 23.325 13.4742 13.8334 11.9236 -0.369625 9.91382 0.00119887 0.988544 -22.7671 -0.390727 -12.1181 46.6881 26.0899 -8.52154 -14.2697 -0.802932 -19.0926 0.339696 2.02597 
